<?xml version="1.0" encoding="utf-8"?>
<!-- Generator: Adobe Illustrator 16.0.0, SVG Export Plug-In . SVG Version: 6.00 Build 0)  -->
<!DOCTYPE svg PUBLIC "-//W3C//DTD SVG 1.1//EN" "http://www.w3.org/Graphics/SVG/1.1/DTD/svg11.dtd">
<svg version="1.1" id="图层_1" xmlns="http://www.w3.org/2000/svg" xmlns:xlink="http://www.w3.org/1999/xlink" x="0px" y="0px"
	 width="50px" height="50px" viewBox="0 0 50 50" enable-background="new 0 0 50 50" xml:space="preserve">
<g>
	<path fill-rule="evenodd" clip-rule="evenodd" fill="#009FE8" d="M46.262,11.47v2.631h-3.374c-0.119,0.481-0.188,0.982-0.188,1.496
		c-0.002,4.554,0.012,9.107-0.01,13.661c-0.005,1.039-0.087,2.08-0.206,3.113c-0.423,3.696-4.055,6.074-7.225,5.922
		c-3.966-0.191-7.149-3.441-7.012-7.639c0.074-2.256-0.616-4.415-1.764-6.366c-2.869-4.877-8.566-8.001-14.929-6.43
		C7.208,18.933,4.1,21.46,2.202,25.497c-0.978,2.078-1.271,4.275-1.189,6.551c0.092,2.545-0.117,5.13,0.269,7.626
		c0.476,3.087,3.465,5.068,6.152,4.825v-1.161c0-3.946-0.021-7.894,0.016-11.84c0.008-0.849,0.143-1.716,0.358-2.537
		c0.782-2.979,3.684-5.23,7.267-5.09c3.524,0.14,6.742,3.238,6.749,6.9c0.006,3.672,1.229,6.816,3.683,9.486
		c4.085,4.446,10.099,5.52,15.2,3.303c5.546-2.41,8.388-6.816,8.413-12.916c0.026-6.392,0.011-12.783,0.008-19.174H46.262z"/>
	<path fill-rule="evenodd" clip-rule="evenodd" fill="#E50012" d="M29.299,27.509c-1.049-2.092-2.049-4.089-3.112-6.212
		c1.618-1.78,3.861-2.889,6.365-3.401c2.688-0.55,5.375-0.367,7.973,0.608c0.625,0.234,0.987,0.566,0.961,1.369
		c-0.073,2.313-0.025,4.63-0.025,7.258c-1.782-2.175-3.854-3.28-6.41-3.106C32.556,24.19,30.59,25.39,29.299,27.509z"/>
	<rect x="42.517" y="10.271" fill-rule="evenodd" clip-rule="evenodd" fill="#009FE8" width="3.237" height="3.239"/>
	<rect x="46.614" y="8.202" fill-rule="evenodd" clip-rule="evenodd" fill="#009FE8" width="2.519" height="2.519"/>
	<rect x="47.631" y="6.038" fill-rule="evenodd" clip-rule="evenodd" fill="#009FE8" width="1.502" height="1.501"/>
	<path fill-rule="evenodd" clip-rule="evenodd" fill="#009FE8" d="M46.614,6.137"/>
	<path fill-rule="evenodd" clip-rule="evenodd" fill="#009FE8" d="M45.768,5.29"/>
	<rect x="46.066" y="6.545" fill-rule="evenodd" clip-rule="evenodd" fill="#009FE8" width="0.848" height="0.847"/>
	<rect x="44.366" y="7.871" fill-rule="evenodd" clip-rule="evenodd" fill="#009FE8" width="1.388" height="1.389"/>
	<rect x="47.041" y="4.888" fill-rule="evenodd" clip-rule="evenodd" fill="#009FE8" width="0.648" height="0.647"/>
	<rect x="48.683" y="4.437" fill-rule="evenodd" clip-rule="evenodd" fill="#009FE8" width="0.3" height="0.301"/>
	<path fill-rule="evenodd" clip-rule="evenodd" fill="#009FE8" d="M47.041,3.992"/>
	<path fill-rule="evenodd" clip-rule="evenodd" fill="#009FE8" d="M46.74,3.691"/>
	<rect x="48.682" y="3.542" fill-rule="evenodd" clip-rule="evenodd" fill="#009FE8" width="0.301" height="0.3"/>
	<rect x="48.76" y="2.694" fill-rule="evenodd" clip-rule="evenodd" fill="#009FE8" width="0.301" height="0.3"/>
	<rect x="47.873" y="4.287" fill-rule="evenodd" clip-rule="evenodd" fill="#009FE8" width="0.301" height="0.3"/>
	<rect x="48.683" y="5.384" fill-rule="evenodd" clip-rule="evenodd" fill="#009FE8" width="0.3" height="0.3"/>
</g>
</svg>
